<?xml version="1.0" standalone="no"?>
<!DOCTYPE svg PUBLIC "-//W3C//DTD SVG 20010904//EN"
 "http://www.w3.org/TR/2001/REC-SVG-20010904/DTD/svg10.dtd">
<svg version="1.0" xmlns="http://www.w3.org/2000/svg"
 width="512.000000pt" height="512.000000pt" viewBox="0 0 512.000000 512.000000"
 preserveAspectRatio="xMidYMid meet">

<g transform="translate(0.000000,512.000000) scale(0.100000,-0.100000)"
fill="#000000" stroke="none">
<path d="M2295 4979 c-650 -65 -1214 -327 -1647 -766 -732 -739 -855 -1809
-308 -2668 72 -113 70 -99 44 -295 -53 -414 -172 -756 -326 -938 -68 -79 -74
-117 -25 -162 27 -26 48 -25 214 5 409 76 839 213 1149 367 l121 60 119 -42
c142 -50 357 -103 509 -125 232 -34 575 -36 800 -5 752 106 1417 508 1811
1097 85 126 213 388 259 528 218 667 88 1395 -352 1962 -397 512 -1005 861
-1678 962 -201 31 -501 39 -690 20z m-787 -1984 c165 -75 241 -279 167 -443
-95 -211 -364 -269 -535 -115 -202 182 -118 516 147 583 60 15 158 4 221 -25z
m1135 20 c100 -26 187 -99 231 -194 32 -71 30 -197 -6 -273 -31 -68 -95 -133
-164 -168 -42 -21 -62 -25 -144 -25 -82 0 -102 4 -144 25 -69 35 -133 100
-164 168 -36 76 -38 202 -6 273 43 93 131 168 227 194 68 18 101 18 170 0z
m1252 -19 c221 -101 266 -397 85 -559 -132 -119 -328 -117 -456 5 -194 183
-113 502 145 575 64 18 161 9 226 -21z"/>
</g>
</svg>
