<?xml version="1.0" standalone="no"?>
<!DOCTYPE svg PUBLIC "-//W3C//DTD SVG 20010904//EN"
 "http://www.w3.org/TR/2001/REC-SVG-20010904/DTD/svg10.dtd">
<svg version="1.0" xmlns="http://www.w3.org/2000/svg"
 width="512.000000pt" height="512.000000pt" viewBox="0 0 512.000000 512.000000"
 preserveAspectRatio="xMidYMid meet">

<g transform="translate(0.000000,512.000000) scale(0.100000,-0.100000)"
fill="#000000" stroke="none">
<path d="M395 4806 c-37 -16 -70 -52 -84 -89 -8 -20 -11 -561 -11 -1773 l0
-1744 450 0 450 0 0 1759 0 1758 -22 33 c-48 69 -55 70 -423 70 -253 -1 -337
-4 -360 -14z"/>
<path d="M2825 4213 c-35 -9 -87 -54 -101 -89 -12 -28 -14 -265 -14 -1479 l0
-1445 450 0 450 0 0 1453 c0 1398 -1 1454 -19 1487 -10 19 -34 44 -52 55 -32
19 -54 20 -364 22 -181 0 -339 -1 -350 -4z"/>
<path d="M1585 3591 c-16 -10 -39 -28 -50 -41 -20 -22 -20 -38 -23 -1186 l-2
-1164 450 0 450 0 0 1148 c0 1097 -1 1149 -19 1182 -10 19 -33 45 -51 58 -33
22 -37 22 -379 22 -319 0 -348 -2 -376 -19z"/>
<path d="M4000 2992 c-19 -9 -45 -32 -57 -51 l-23 -34 0 -853 0 -854 450 0
450 0 0 843 0 844 -23 43 c-42 79 -45 80 -427 80 -299 0 -339 -2 -370 -18z"/>
<path d="M0 659 c0 -230 1 -243 22 -280 14 -25 37 -46 63 -59 41 -20 62 -20
2475 -20 2413 0 2434 0 2475 20 26 13 49 34 63 59 21 37 22 50 22 280 l0 241
-2560 0 -2560 0 0 -241z"/>
</g>
</svg>
