<?xml version="1.0" standalone="no"?>
<!DOCTYPE svg PUBLIC "-//W3C//DTD SVG 20010904//EN"
 "http://www.w3.org/TR/2001/REC-SVG-20010904/DTD/svg10.dtd">
<svg version="1.0" xmlns="http://www.w3.org/2000/svg"
 width="96.000000pt" height="96.000000pt" viewBox="0 0 96.000000 96.000000"
 preserveAspectRatio="xMidYMid meet">

<g transform="translate(0.000000,96.000000) scale(0.100000,-0.100000)"
fill="#000000" stroke="none">
<path d="M135 770 c-71 -35 -75 -49 -75 -290 0 -241 4 -256 75 -290 38 -19 63
-20 345 -20 436 0 420 -12 420 310 0 235 -5 256 -74 290 -40 19 -61 20 -347
20 -284 0 -307 -1 -344 -20z m285 -230 l0 -100 25 0 c33 0 35 -37 3 -42 -19
-2 -24 -10 -26 -40 -3 -30 -7 -38 -23 -38 -16 0 -19 7 -19 40 l0 40 -70 0
c-97 0 -97 -2 27 168 74 100 83 97 83 -28z m243 88 c35 -18 46 -40 47 -86 0
-49 -18 -72 -103 -129 -26 -18 -47 -37 -47 -43 0 -6 31 -10 75 -10 68 0 75 -2
75 -20 0 -19 -7 -20 -100 -20 -94 0 -100 1 -100 20 0 39 30 79 89 120 33 22
62 49 66 60 9 29 -3 60 -28 69 -34 13 -56 1 -69 -35 -9 -25 -18 -34 -35 -34
-20 0 -22 4 -16 33 13 70 86 108 146 75z"/>
<path d="M337 499 l-38 -54 37 -3 c20 -2 38 -1 41 1 2 3 3 29 1 58 l-3 52 -38
-54z"/>
</g>
</svg>
