<?xml version="1.0" standalone="no"?>
<!DOCTYPE svg PUBLIC "-//W3C//DTD SVG 20010904//EN"
 "http://www.w3.org/TR/2001/REC-SVG-20010904/DTD/svg10.dtd">
<svg version="1.0" xmlns="http://www.w3.org/2000/svg"
 width="512.000000pt" height="512.000000pt" viewBox="0 0 512.000000 512.000000"
 preserveAspectRatio="xMidYMid meet">

<g transform="translate(0.000000,512.000000) scale(0.100000,-0.100000)"
fill="#000000" stroke="none">
<path d="M2051 4847 c-56 -28 -62 -49 -107 -369 -24 -167 -44 -307 -44 -313 0
-5 -42 -30 -92 -55 -51 -25 -139 -76 -197 -114 l-104 -69 -291 117 c-312 124
-346 133 -391 94 -41 -37 -505 -847 -505 -883 0 -16 8 -43 18 -58 9 -15 127
-114 262 -220 l245 -192 -5 -60 c-7 -79 -4 -304 3 -353 l7 -39 -255 -198
c-264 -206 -283 -225 -272 -288 6 -37 456 -818 495 -859 49 -53 61 -50 390 81
l302 121 76 -55 c42 -30 130 -82 195 -115 66 -34 119 -64 119 -69 0 -4 20
-146 44 -316 44 -307 45 -308 75 -339 l31 -31 498 -3 c382 -1 503 1 521 10 55
29 60 48 108 379 24 173 45 315 46 315 1 1 47 24 102 52 56 28 143 78 194 113
l94 62 291 -117 c321 -129 349 -135 394 -88 44 44 502 844 502 876 0 15 -6 39
-14 54 -8 15 -127 115 -265 222 l-251 195 7 45 c9 57 9 301 -1 360 l-6 45 254
198 c139 109 259 210 265 223 20 45 12 78 -49 184 -250 439 -429 736 -453 754
-18 13 -41 20 -65 19 -21 -1 -162 -52 -324 -117 l-287 -116 -75 54 c-42 30
-130 82 -196 115 -66 34 -120 63 -120 65 0 1 -20 141 -44 311 -47 325 -53 344
-107 372 -18 10 -144 13 -509 13 -365 0 -491 -3 -509 -13z m652 -1501 c168
-32 314 -113 434 -239 83 -87 134 -169 173 -274 128 -352 -2 -738 -317 -943
-136 -89 -259 -125 -433 -125 -174 0 -297 36 -433 125 -174 113 -286 271 -345
485 -23 85 -22 287 2 380 105 407 512 669 919 591z"/>
</g>
</svg>
